<svg height="494" width="720" xmlns="http://www.w3.org/2000/svg">
<rect height="494" fill="#555" width="720"></rect>
<text fill="#7f7" font-family="Courier New" font-size="12" xml:space="preserve">
<tspan x="10" y="26">6 megabytes installed</tspan>
<tspan x="10" y="42"></tspan>
<tspan x="10" y="58">node_modules</tspan>
<tspan x="10" y="74">└─┬ postcss-font-magician@1.6.1 </tspan>
<tspan x="10" y="90">  ├─┬ bootstrap-fonts-complete@1.0.0 </tspan>
<tspan x="10" y="106">  │ └─┬ postcss@4.1.16 </tspan>
<tspan x="10" y="122">  │   ├── es6-promise@2.3.0 </tspan>
<tspan x="10" y="138">  │   └─┬ source-map@0.4.4 </tspan>
<tspan x="10" y="154">  │     └── amdefine@1.0.1 </tspan>
<tspan x="10" y="170">  ├─┬ directory-fonts-complete@1.1.0 </tspan>
<tspan x="10" y="186">  │ ├── is-eot@1.0.0 </tspan>
<tspan x="10" y="202">  │ ├─┬ is-otf@0.1.2 </tspan>
<tspan x="10" y="218">  │ │ └── b3b@0.0.1 </tspan>
<tspan x="10" y="234">  │ ├── is-ttf@0.2.2 </tspan>
<tspan x="10" y="250">  │ └── is-woff@1.0.3 </tspan>
<tspan x="10" y="266">  ├─┬ google-fonts-complete@1.1.1 </tspan>
<tspan x="10" y="282">  │ └── postcss@4.1.16 </tspan>
<tspan x="10" y="298">  └─┬ postcss@5.2.17 </tspan>
<tspan x="10" y="314">    ├─┬ chalk@1.1.3 </tspan>
<tspan x="10" y="330">    │ ├── ansi-styles@2.2.1 </tspan>
<tspan x="10" y="346">    │ ├── escape-string-regexp@1.0.5 </tspan>
<tspan x="10" y="362">    │ ├─┬ has-ansi@2.0.0 </tspan>
<tspan x="10" y="378">    │ │ └── ansi-regex@2.1.1 </tspan>
<tspan x="10" y="394">    │ ├── strip-ansi@3.0.1 </tspan>
<tspan x="10" y="410">    │ └── supports-color@2.0.0 </tspan>
<tspan x="10" y="426">    ├── js-base64@2.1.9 </tspan>
<tspan x="10" y="442">    ├── source-map@0.5.6 </tspan>
<tspan x="10" y="458">    └─┬ supports-color@3.2.3 </tspan>
<tspan x="10" y="474">      └── has-flag@1.0.0</tspan>
</text>
</svg>
